<svg width="16" height="16" viewBox="0 0 16 16" fill="none" xmlns="http://www.w3.org/2000/svg">
<path d="M7.99992 14.6666C7.08881 14.6666 6.2277 14.4916 5.41659 14.1416C4.60547 13.7916 3.89714 13.3138 3.29159 12.7083C2.68603 12.1027 2.20825 11.3944 1.85825 10.5833C1.50825 9.77214 1.33325 8.91103 1.33325 7.99992C1.33325 7.0777 1.50825 6.21381 1.85825 5.40825C2.20825 4.6027 2.68603 3.89714 3.29159 3.29159C3.89714 2.68603 4.60547 2.20825 5.41659 1.85825C6.2277 1.50825 7.08881 1.33325 7.99992 1.33325C8.92214 1.33325 9.78603 1.50825 10.5916 1.85825C11.3971 2.20825 12.1027 2.68603 12.7083 3.29159C13.3138 3.89714 13.7916 4.6027 14.1416 5.40825C14.4916 6.21381 14.6666 7.0777 14.6666 7.99992C14.6666 8.91103 14.4916 9.77214 14.1416 10.5833C13.7916 11.3944 13.3138 12.1027 12.7083 12.7083C12.1027 13.3138 11.3971 13.7916 10.5916 14.1416C9.78603 14.4916 8.92214 14.6666 7.99992 14.6666ZM7.99992 13.2999C8.28881 12.8999 8.53881 12.4833 8.74992 12.0499C8.96103 11.6166 9.13325 11.1555 9.26658 10.6666H6.73325C6.86658 11.1555 7.03881 11.6166 7.24992 12.0499C7.46103 12.4833 7.71103 12.8999 7.99992 13.2999ZM6.26658 13.0333C6.06659 12.6666 5.89159 12.286 5.74159 11.8916C5.59159 11.4971 5.46659 11.0888 5.36659 10.6666H3.39992C3.72214 11.2221 4.12492 11.7055 4.60825 12.1166C5.09159 12.5277 5.64436 12.8333 6.26658 13.0333ZM9.73325 13.0333C10.3555 12.8333 10.9083 12.5277 11.3916 12.1166C11.8749 11.7055 12.2777 11.2221 12.5999 10.6666H10.6333C10.5333 11.0888 10.4083 11.4971 10.2583 11.8916C10.1083 12.286 9.93325 12.6666 9.73325 13.0333ZM2.83325 9.33325H5.09992C5.06659 9.11103 5.04159 8.89158 5.02492 8.67492C5.00825 8.45825 4.99992 8.23325 4.99992 7.99992C4.99992 7.76658 5.00825 7.54158 5.02492 7.32492C5.04159 7.10825 5.06659 6.88881 5.09992 6.66658H2.83325C2.7777 6.88881 2.73603 7.10825 2.70825 7.32492C2.68047 7.54158 2.66659 7.76658 2.66659 7.99992C2.66659 8.23325 2.68047 8.45825 2.70825 8.67492C2.73603 8.89158 2.7777 9.11103 2.83325 9.33325ZM6.43325 9.33325H9.56658C9.59992 9.11103 9.62492 8.89158 9.64158 8.67492C9.65825 8.45825 9.66658 8.23325 9.66658 7.99992C9.66658 7.76658 9.65825 7.54158 9.64158 7.32492C9.62492 7.10825 9.59992 6.88881 9.56658 6.66658H6.43325C6.39992 6.88881 6.37492 7.10825 6.35825 7.32492C6.34158 7.54158 6.33325 7.76658 6.33325 7.99992C6.33325 8.23325 6.34158 8.45825 6.35825 8.67492C6.37492 8.89158 6.39992 9.11103 6.43325 9.33325ZM10.8999 9.33325H13.1666C13.2221 9.11103 13.2638 8.89158 13.2916 8.67492C13.3194 8.45825 13.3333 8.23325 13.3333 7.99992C13.3333 7.76658 13.3194 7.54158 13.2916 7.32492C13.2638 7.10825 13.2221 6.88881 13.1666 6.66658H10.8999C10.9333 6.88881 10.9583 7.10825 10.9749 7.32492C10.9916 7.54158 10.9999 7.76658 10.9999 7.99992C10.9999 8.23325 10.9916 8.45825 10.9749 8.67492C10.9583 8.89158 10.9333 9.11103 10.8999 9.33325ZM10.6333 5.33325H12.5999C12.2777 4.7777 11.8749 4.29436 11.3916 3.88325C10.9083 3.47214 10.3555 3.16659 9.73325 2.96659C9.93325 3.33325 10.1083 3.71381 10.2583 4.10825C10.4083 4.5027 10.5333 4.91103 10.6333 5.33325ZM6.73325 5.33325H9.26658C9.13325 4.84436 8.96103 4.38325 8.74992 3.94992C8.53881 3.51659 8.28881 3.09992 7.99992 2.69992C7.71103 3.09992 7.46103 3.51659 7.24992 3.94992C7.03881 4.38325 6.86658 4.84436 6.73325 5.33325ZM3.39992 5.33325H5.36659C5.46659 4.91103 5.59159 4.5027 5.74159 4.10825C5.89159 3.71381 6.06659 3.33325 6.26658 2.96659C5.64436 3.16659 5.09159 3.47214 4.60825 3.88325C4.12492 4.29436 3.72214 4.7777 3.39992 5.33325Z" fill="#96EE33"/>
</svg>
