<svg width="276" height="25" viewBox="0 0 276 25" fill="none" xmlns="http://www.w3.org/2000/svg">
<path d="M22.0626 11.4228V12.9594C22.0626 20.1686 18.1584 24.7396 11.6256 24.7396C4.49369 24.7396 0 19.3375 0 12.4086C0 5.47956 4.60966 0.0388184 11.7416 0.0388184C17.4529 0.0388184 20.0525 3.18922 20.0525 3.18922L18.7479 4.88039C18.7479 4.88039 16.3029 2.16485 11.7319 2.16485C5.81764 2.16485 2.31933 6.81317 2.31933 12.4086C2.31933 18.0039 5.74999 22.6136 11.616 22.6136C16.4576 22.6136 19.7723 19.2216 19.8109 13.9451V13.5102H10.9878V11.4228H22.0626Z" fill="white"/>
<path d="M48.6964 8.34965C48.6964 12.3312 46.4544 14.8534 43.0624 15.7522V15.8295L49.1313 23.6282V24.1791H46.8506L40.5111 16.1387H32.983V24.1791H30.741V0.54126H39.767C45.401 0.54126 48.7061 3.33412 48.7061 8.34L48.6964 8.34965ZM39.7574 2.63833H32.983V14.061H40.1149C43.7389 14.061 46.4158 12.2055 46.4158 8.42697C46.4158 4.6484 43.7775 2.63833 39.7574 2.63833Z" fill="white"/>
<path d="M57.0554 12.4086C57.0554 5.39259 61.6264 0.0388184 68.6811 0.0388184C75.7357 0.0388184 80.268 5.39259 80.268 12.4086C80.268 19.4245 75.7743 24.7396 68.6811 24.7396C61.5878 24.7396 57.0554 19.3375 57.0554 12.4086ZM78.0163 12.4086C78.0163 6.81317 74.4697 2.16485 68.6811 2.16485C62.8924 2.16485 59.3844 6.81317 59.3844 12.4086C59.3844 18.0039 62.8924 22.6136 68.6811 22.6136C74.4697 22.6136 78.0163 17.9653 78.0163 12.4086Z" fill="white"/>
<path d="M88.5889 12.4086C88.5889 5.39259 93.1599 0.0388184 100.214 0.0388184C107.269 0.0388184 111.801 5.39259 111.801 12.4086C111.801 19.4245 107.308 24.7396 100.214 24.7396C93.1212 24.7396 88.5889 19.3375 88.5889 12.4086ZM109.55 12.4086C109.55 6.81317 106.003 2.16485 100.214 2.16485C94.4258 2.16485 90.9179 6.81317 90.9179 12.4086C90.9179 18.0039 94.4258 22.6136 100.214 22.6136C106.003 22.6136 109.55 17.9653 109.55 12.4086Z" fill="white"/>
<path d="M120.025 0.551025L128.732 21.3959L137.478 0.551025H139.807L129.795 24.1888H127.708L117.745 0.551025H120.025Z" fill="white"/>
<path d="M150.428 13.2783V22.1014H164.537V24.1888H148.186V0.551025H164.537V2.63842H150.428V11.1909H162.566V13.2783H150.428Z" fill="white"/>
<path d="M172.751 0.54126V5.39251H179.468V24.1887H185.063V5.39251H191.77V0.54126H172.751Z" fill="white"/>
<path d="M217.505 5.39251V0.54126H200.332V24.1887H217.505V19.3375H205.927V14.4185H215.659V9.99251H205.927V5.39251H217.505Z" fill="white"/>
<path d="M242.795 17.3756H242.785C242.785 17.3756 242.35 17.8492 241.529 18.3034C240.775 18.7286 239.548 19.2214 237.934 19.2214C236.958 19.2214 236.049 19.0475 235.209 18.6996C234.406 18.3613 233.691 17.8781 233.092 17.2596C231.894 16.013 231.237 14.2542 231.237 12.3214C231.237 10.3887 231.894 8.63948 233.092 7.38317C233.691 6.76469 234.397 6.2815 235.209 5.94327C236.04 5.59537 236.958 5.42141 237.934 5.42141C239.548 5.42141 240.785 5.9336 241.529 6.35881C242.34 6.82267 242.775 7.2962 242.785 7.2962H242.795L246.013 2.95714V2.93782C246.013 2.93782 245.356 2.19369 244.012 1.4689C242.775 0.80209 240.698 0 237.769 0C235.885 0 234.136 0.328561 232.561 0.985703C232.406 1.05335 232.261 1.13066 232.106 1.19831C232.048 1.2273 231.981 1.25629 231.923 1.28528C231.623 1.43024 231.324 1.59454 231.043 1.75883C230.985 1.78782 230.937 1.82645 230.879 1.85544C230.599 2.02939 230.328 2.21302 230.067 2.41597C230.019 2.45462 229.961 2.49327 229.913 2.53193C229.661 2.7252 229.42 2.9378 229.178 3.16007C229.12 3.20839 229.072 3.25671 229.014 3.3147C228.898 3.421 228.782 3.5273 228.676 3.64327C228.56 3.7689 228.463 3.89454 228.347 4.02017C228.308 4.05883 228.28 4.09748 228.251 4.13613C228.038 4.39706 227.825 4.65799 227.632 4.92858C227.603 4.96723 227.584 5.00588 227.555 5.04454C227.361 5.32479 227.178 5.6147 227.014 5.91428C226.994 5.95293 226.975 5.98194 226.956 6.0206C226.791 6.32984 226.637 6.63908 226.492 6.95799C226.482 6.98698 226.463 7.01595 226.453 7.05461C226.308 7.38318 226.182 7.72142 226.066 8.05966C226.066 8.08865 226.047 8.10796 226.037 8.13695C225.922 8.48485 225.825 8.84242 225.748 9.19999C225.748 9.21931 225.738 9.24831 225.728 9.26764C225.651 9.63487 225.583 10.0021 225.525 10.379C225.525 10.3983 225.525 10.4273 225.525 10.4466C225.477 10.8235 225.438 11.2101 225.429 11.5966C225.429 11.616 225.429 11.645 225.429 11.6643C225.429 11.8576 225.4 12.0508 225.4 12.2441C225.4 12.4374 225.419 12.6403 225.429 12.8336C225.429 12.8529 225.429 12.8819 225.429 12.9013C225.448 13.2975 225.477 13.684 225.535 14.0609C225.535 14.0802 225.535 14.0996 225.535 14.1189C225.583 14.5054 225.651 14.8824 225.738 15.2592C225.738 15.2786 225.738 15.2882 225.748 15.3076C225.835 15.6844 225.931 16.0517 226.047 16.4092C226.047 16.4286 226.057 16.4382 226.066 16.4576C226.182 16.8151 226.318 17.163 226.463 17.5012C226.463 17.5206 226.482 17.5399 226.492 17.5689C226.637 17.9071 226.791 18.226 226.965 18.545C226.985 18.5739 226.994 18.6029 227.014 18.6319C227.187 18.9412 227.371 19.2408 227.564 19.521C227.584 19.5597 227.613 19.5886 227.642 19.6273C227.835 19.9076 228.038 20.1781 228.26 20.4391C228.289 20.4777 228.328 20.5164 228.357 20.555C228.463 20.6807 228.569 20.8159 228.685 20.9416C228.792 21.0575 228.917 21.1639 229.024 21.2702C229.072 21.3185 229.13 21.3764 229.188 21.4248C229.42 21.647 229.671 21.8597 229.922 22.0529C229.971 22.0916 230.029 22.1302 230.077 22.1689C230.338 22.3718 230.609 22.5554 230.889 22.7294C230.947 22.768 230.995 22.7971 231.053 22.8357C231.333 23.0097 231.623 23.1643 231.923 23.3189C231.99 23.3479 232.058 23.3866 232.126 23.4155C232.28 23.4832 232.425 23.5702 232.58 23.6282C234.155 24.2853 235.904 24.6235 237.789 24.6235C240.717 24.6235 242.804 23.8118 244.032 23.1353C245.365 22.4008 246.022 21.6567 246.032 21.647L242.814 17.337L242.795 17.3756Z" fill="white"/>
<path d="M270.405 0.54126V10.1568H260.577V0.54126H254.981V24.2274H260.577V14.6118H270.405V24.2274H276V0.54126H270.405Z" fill="white"/>
</svg>
