<svg width="40" height="40" viewBox="0 0 40 40" fill="none" xmlns="http://www.w3.org/2000/svg">
<path d="M23.6753 20.5599C23.6753 22.5893 22.0303 24.2352 20 24.2352C17.9705 24.2352 16.3247 22.5902 16.3247 20.5599C16.3247 18.5304 17.9696 16.8846 20 16.8846C22.0295 16.8846 23.6753 18.5304 23.6753 20.5599ZM28.9741 16.1049C29.0275 17.2673 29.0382 17.6163 29.0382 20.5599C29.0382 23.5035 29.0267 23.8524 28.9741 25.0149C28.9252 26.0902 28.7454 26.6741 28.595 27.0622C28.3947 27.5767 28.1561 27.9443 27.7707 28.3297C27.3853 28.716 27.0177 28.9546 26.5032 29.1548C26.1142 29.3062 25.5312 29.4851 24.4559 29.5349C23.2934 29.5883 22.9445 29.599 20.0009 29.599C17.0564 29.599 16.7083 29.5874 15.5459 29.5349C14.4706 29.486 13.8876 29.3062 13.4986 29.1548C12.9841 28.9546 12.6165 28.716 12.2311 28.3297C11.8448 27.9443 11.6062 27.5767 11.4059 27.0622C11.2546 26.6732 11.0757 26.0902 11.0267 25.0149C10.9733 23.8524 10.9627 23.5035 10.9627 20.5599C10.9627 17.6163 10.9742 17.2673 11.0267 16.1049C11.0757 15.0296 11.2555 14.4466 11.4059 14.0576C11.6062 13.5431 11.8448 13.1755 12.2311 12.7901C12.6165 12.4046 12.9841 12.1652 13.4986 11.9658C13.8867 11.8145 14.4706 11.6356 15.5459 11.5866C16.7083 11.5332 17.0573 11.5225 20.0009 11.5225C22.9445 11.5225 23.2934 11.5341 24.4559 11.5866C25.5312 11.6356 26.1142 11.8154 26.5032 11.9658C27.0177 12.1661 27.3853 12.4046 27.7707 12.7901C28.157 13.1755 28.3956 13.5431 28.595 14.0576C28.7454 14.4457 28.9252 15.0296 28.9741 16.1049ZM25.6611 20.5599C25.6611 17.4329 23.1261 14.8987 20 14.8987C16.873 14.8987 14.338 17.4338 14.338 20.5599C14.338 23.6869 16.873 26.221 20 26.221C23.127 26.221 25.6611 23.686 25.6611 20.5599ZM27.2082 14.6744C27.2082 13.9437 26.6153 13.3517 25.8854 13.3517C25.1546 13.3517 24.5627 13.9437 24.5627 14.6744C24.5627 15.4052 25.1546 15.9972 25.8854 15.9972C26.6162 15.9972 27.2082 15.4052 27.2082 14.6744ZM40 20C40 31.0454 31.0454 40 20 40C8.95455 40 0 31.0454 0 20C0 8.95456 8.95455 0 20 0C31.0454 0 40 8.95456 40 20ZM31.025 20.5599C31.025 17.5655 31.0125 17.1899 30.9582 16.0141C30.9048 14.8409 30.7188 14.0389 30.4455 13.3375C30.1633 12.6129 29.7868 11.9979 29.1735 11.3846C28.5602 10.7713 27.9461 10.3948 27.2206 10.1126C26.5192 9.84022 25.7181 9.6533 24.544 9.59989C23.3682 9.54648 22.9926 9.53313 19.9982 9.53313C17.0039 9.53313 16.6282 9.54559 15.4524 9.59989C14.2792 9.6533 13.4772 9.84022 12.7758 10.1126C12.0513 10.3939 11.4362 10.7713 10.8229 11.3846C10.2096 11.9979 9.8331 12.612 9.55093 13.3375C9.27856 14.0389 9.09163 14.84 9.03822 16.0141C8.98482 17.1899 8.97147 17.5655 8.97147 20.5599C8.97147 23.5542 8.98393 23.9299 9.03822 25.1057C9.09163 26.2789 9.27856 27.0809 9.55093 27.7823C9.83221 28.5068 10.2096 29.1219 10.8229 29.7352C11.4362 30.3485 12.0504 30.725 12.7758 31.0072C13.4772 31.2795 14.2783 31.4665 15.4524 31.5199C16.6282 31.5733 17.0039 31.5857 19.9982 31.5857C22.9926 31.5857 23.3682 31.5733 24.544 31.5199C25.7172 31.4665 26.5192 31.2795 27.2206 31.0072C27.9452 30.725 28.5602 30.3485 29.1735 29.7352C29.7868 29.1219 30.1633 28.5077 30.4455 27.7823C30.7179 27.0809 30.9039 26.2798 30.9582 25.1057C31.0125 23.929 31.025 23.5542 31.025 20.5599Z" fill="#96EE33"/>
</svg>
