<svg width="40" height="40" viewBox="0 0 40 40" fill="none" xmlns="http://www.w3.org/2000/svg">
<path d="M20 0C8.95456 0 0 8.95456 0 20C0 31.0454 8.95456 40 20 40C31.0454 40 40 31.0454 40 20C40 8.95456 31.0454 0 20 0ZM13.9632 29.8046H9.75922V16.4841H13.9632V29.8046ZM11.754 14.8178H11.7237C10.2016 14.8178 9.21536 13.7995 9.21536 12.5088C9.21536 11.1932 10.231 10.1963 11.7833 10.1963C13.3339 10.1963 14.2881 11.1905 14.3184 12.5052C14.3184 13.7959 13.3339 14.8178 11.754 14.8178ZM30.7846 29.8046H26.0172V22.9116C26.0172 21.1073 25.2713 19.8754 23.6317 19.8754C22.3775 19.8754 21.6796 20.7068 21.3556 21.5079C21.2337 21.7954 21.2533 22.1959 21.2533 22.5965V29.8046H16.5303C16.5303 29.8046 16.5909 17.594 16.5303 16.4841H21.2533V18.5749C21.5319 17.6608 23.0415 16.3568 25.4502 16.3568C28.4383 16.3568 30.7855 18.2732 30.7855 22.3989V29.8046H30.7846Z" fill="#96EE33"/>
</svg>
