<svg width="28" height="16" viewBox="0 0 28 16" fill="none" xmlns="http://www.w3.org/2000/svg">
<path d="M4.66667 9.77917L7.6125 6.83333L4.66667 3.8875L1.72083 6.83333L4.66667 9.77917ZM20.4167 9.16667L23.3333 4.5L26.25 9.16667H20.4167ZM14 8C13.0278 8 12.2014 7.65972 11.5208 6.97917C10.8403 6.29861 10.5 5.47222 10.5 4.5C10.5 3.50833 10.8403 2.67708 11.5208 2.00625C12.2014 1.33542 13.0278 1 14 1C14.9917 1 15.8229 1.33542 16.4938 2.00625C17.1646 2.67708 17.5 3.50833 17.5 4.5C17.5 5.47222 17.1646 6.29861 16.4938 6.97917C15.8229 7.65972 14.9917 8 14 8ZM14 3.33333C13.6694 3.33333 13.3924 3.44514 13.1688 3.66875C12.9451 3.89236 12.8333 4.16944 12.8333 4.5C12.8333 4.83056 12.9451 5.10764 13.1688 5.33125C13.3924 5.55486 13.6694 5.66667 14 5.66667C14.3306 5.66667 14.6076 5.55486 14.8313 5.33125C15.0549 5.10764 15.1667 4.83056 15.1667 4.5C15.1667 4.16944 15.0549 3.89236 14.8313 3.66875C14.6076 3.44514 14.3306 3.33333 14 3.33333ZM0 15V13.1625C0 12.3069 0.432639 11.6215 1.29792 11.1063C2.16319 10.591 3.28611 10.3333 4.66667 10.3333C4.91944 10.3333 5.1625 10.3382 5.39583 10.3479C5.62917 10.3576 5.85278 10.3819 6.06667 10.4208C5.79444 10.8097 5.59028 11.2278 5.45417 11.675C5.31806 12.1222 5.25 12.5986 5.25 13.1042V15H0ZM7 15V13.1042C7 11.8403 7.64653 10.8194 8.93958 10.0417C10.2326 9.26389 11.9194 8.875 14 8.875C16.1 8.875 17.7917 9.26389 19.075 10.0417C20.3583 10.8194 21 11.8403 21 13.1042V15H7ZM23.3333 10.3333C24.7333 10.3333 25.8611 10.591 26.7167 11.1063C27.5722 11.6215 28 12.3069 28 13.1625V15H22.75V13.1042C22.75 12.5986 22.6868 12.1222 22.5604 11.675C22.434 11.2278 22.2444 10.8097 21.9917 10.4208C22.2056 10.3819 22.4243 10.3576 22.6479 10.3479C22.8715 10.3382 23.1 10.3333 23.3333 10.3333ZM14 11.2083C12.8917 11.2083 11.9 11.3542 11.025 11.6458C10.15 11.9375 9.63472 12.2778 9.47917 12.6667H18.55C18.375 12.2778 17.8549 11.9375 16.9896 11.6458C16.1243 11.3542 15.1278 11.2083 14 11.2083Z" fill="#919191"/>
</svg>
