<svg width="40" height="40" viewBox="0 0 40 40" fill="none" xmlns="http://www.w3.org/2000/svg">
<rect width="40" height="40" rx="20" fill="black"/>
<path d="M26.9438 22.8582C27.0177 22.9872 27.0177 23.5961 26.7658 24.3091C26.5139 25.022 25.5125 25.6122 24.7132 25.784C24.1666 25.9006 23.4536 25.9932 21.0512 24.9971C17.9785 23.7243 15.9998 20.6017 15.8467 20.3997C15.699 20.1967 14.6059 18.7458 14.6059 17.246C14.6059 15.7461 15.3678 15.0145 15.6749 14.7012C15.9268 14.443 16.3452 14.3264 16.744 14.3264C16.873 14.3264 16.9896 14.3326 17.0938 14.3389C17.4009 14.3513 17.5548 14.37 17.7569 14.8551C18.0088 15.464 18.623 16.9638 18.6969 17.1169C18.7707 17.2709 18.8446 17.4792 18.7396 17.6821C18.6408 17.8913 18.5553 17.9839 18.4013 18.1619C18.2474 18.3399 18.1005 18.4752 17.9465 18.6657C17.805 18.8313 17.6456 19.0102 17.8237 19.3173C18.0017 19.6182 18.6159 20.6204 19.5193 21.4251C20.6872 22.4639 21.6334 22.7959 21.9716 22.9374C22.2235 23.0424 22.5244 23.0175 22.7086 22.8208C22.9418 22.5689 23.2311 22.1505 23.5257 21.7393C23.7349 21.4447 23.9984 21.4073 24.2752 21.5114C24.5583 21.6102 26.051 22.3472 26.3581 22.5012C26.667 22.6561 26.8699 22.7291 26.9438 22.8582ZM40 20C40 31.0455 31.0454 40 20 40C8.95456 40 0 31.0455 0 20C0 8.95457 8.95456 0 20 0C31.0454 0 40 8.95457 40 20ZM31.1345 20C31.1345 14.2347 26.4462 9.54472 20.6818 9.54472H20.6756C14.9121 9.54472 10.223 14.2347 10.223 20C10.223 22.2867 10.96 24.407 12.2142 26.1285L10.911 30.0129L14.9299 28.7285C16.5828 29.8224 18.5553 30.4553 20.6818 30.4553C26.4462 30.4553 31.1345 25.7653 31.1345 20Z" fill="#96EE33"/>
</svg>
